<svg width="12" height="12" viewBox="0 0 12 12" fill="none" xmlns="http://www.w3.org/2000/svg">
<rect x="0.5" y="1.5" width="9" height="8" rx="1.5" stroke="#4B5563"/>
<path d="M11.5264 2.18652C11.559 2.19359 11.5845 2.2092 11.5996 2.22656C11.6119 2.2407 11.625 2.26427 11.625 2.30859V9C11.625 9.04569 11.6109 9.06917 11.5986 9.08301C11.5833 9.10014 11.5576 9.1164 11.5244 9.12305C11.4911 9.12968 11.4612 9.12427 11.4404 9.11426C11.4238 9.10619 11.4023 9.08995 11.3848 9.04785L9.92969 5.55664C9.91641 5.52464 9.9173 5.48858 9.93164 5.45703L11.3857 2.25684C11.4041 2.21635 11.4263 2.20015 11.4434 2.19238C11.4643 2.18287 11.4938 2.17947 11.5264 2.18652Z" stroke="#4B5563" stroke-width="0.75"/>
</svg>
